<?xml version="1.0" standalone="no"?>
<!DOCTYPE svg PUBLIC "-//W3C//DTD SVG 20010904//EN"
 "http://www.w3.org/TR/2001/REC-SVG-20010904/DTD/svg10.dtd">
<svg version="1.0" xmlns="http://www.w3.org/2000/svg"
 width="1024.000000pt" height="1024.000000pt" viewBox="0 0 1024.000000 1024.000000"
 preserveAspectRatio="xMidYMid meet">

<g transform="translate(0.000000,1024.000000) scale(0.100000,-0.100000)"
fill="#000000" stroke="none">
<path d="M0 5120 l0 -5120 5120 0 5120 0 0 5120 0 5120 -5120 0 -5120 0 0
-5120z m7033 4469 c94 -49 131 -144 87 -229 -41 -81 -137 -109 -225 -65 -77
39 -111 158 -65 232 36 60 144 92 203 62z m-691 -46 c23 -27 28 -51 18 -78
-20 -54 -110 -35 -110 23 0 60 58 94 92 55z m-3191 -52 c35 -36 37 -64 4 -96
-37 -38 -80 -33 -104 12 -17 33 -13 71 9 93 28 28 57 25 91 -9z m4183 -90
c148 -82 309 -184 411 -261 34 -25 89 -65 124 -90 258 -182 507 -395 706 -601
246 -255 539 -658 681 -935 62 -121 124 -257 124 -271 0 -2 -12 8 -27 22 -15
14 -31 25 -35 25 -5 0 -8 7 -8 16 0 8 -4 13 -9 10 -5 -4 -30 36 -56 86 -55
109 -139 254 -205 353 -52 80 -64 104 -61 124 2 9 -3 12 -13 8 -9 -4 -16 -2
-16 3 0 5 -6 15 -13 22 -7 7 -24 29 -37 48 -22 32 -98 128 -110 140 -3 3 -28
32 -55 65 -124 149 -289 322 -438 458 -140 128 -205 182 -385 315 -18 13 -38
35 -45 49 -7 16 -17 23 -29 20 -9 -3 -23 2 -30 11 -11 13 -10 15 5 9 11 -4 16
-3 12 4 -4 6 -14 8 -22 5 -9 -4 -67 32 -148 89 -73 52 -138 95 -144 95 -6 0
-11 5 -11 10 0 6 -6 10 -12 10 -7 0 -41 18 -76 40 -34 22 -65 40 -69 40 -3 0
-33 17 -67 38 -33 20 -73 42 -88 49 -36 15 -40 73 -6 73 6 0 73 -35 152 -79z
m-1730 -85 c376 -54 740 -156 1054 -295 192 -85 428 -209 552 -291 570 -376
946 -744 1296 -1270 208 -312 410 -735 529 -1111 92 -288 137 -498 174 -819
29 -244 35 -424 22 -645 -27 -481 -140 -983 -314 -1393 -32 -74 -57 -136 -57
-139 0 -10 -116 -234 -173 -333 -144 -251 -295 -465 -488 -695 -148 -177 -190
-222 -314 -337 -530 -492 -1084 -800 -1795 -997 -348 -97 -619 -130 -1054
-131 -547 0 -926 66 -1426 251 -332 122 -615 271 -941 495 -512 351 -851 715
-1244 1334 -258 406 -455 950 -545 1505 -48 296 -63 499 -56 738 4 114 9 213
11 220 2 7 6 37 9 67 10 104 76 475 106 600 85 345 187 622 351 945 121 239
188 349 335 556 209 292 402 509 644 722 231 203 436 353 685 500 485 285
1017 465 1580 531 169 21 903 15 1059 -8z m1557 -52 c90 -45 378 -235 484
-319 22 -17 61 -44 87 -58 81 -47 330 -256 590 -498 285 -264 555 -598 685
-847 25 -48 61 -113 80 -145 32 -52 39 -98 13 -82 -13 8 -13 -5 0 -25 9 -13
11 -13 20 0 8 13 10 13 10 -1 0 -9 7 -19 15 -23 8 -3 15 -10 15 -16 0 -7 -13
-4 -31 7 -28 16 -92 101 -107 142 -5 16 -70 121 -150 246 -114 178 -309 411
-470 564 -26 24 -103 99 -172 165 -174 168 -339 311 -445 386 -49 35 -103 76
-120 91 -16 15 -70 53 -120 85 -49 32 -110 75 -135 95 -25 20 -96 67 -158 103
-62 37 -129 81 -148 98 -33 30 -35 33 -18 45 22 16 16 17 75 -13z m-4316 -73
c7 -13 -34 -41 -60 -41 -12 0 -25 -4 -31 -10 -5 -5 -15 -5 -23 -1 -9 6 2 16
40 34 61 30 66 31 74 18z m-120 -71 c-3 -5 -11 -10 -16 -10 -6 0 -7 5 -4 10 3
6 11 10 16 10 6 0 7 -4 4 -10z m4317 -34 c18 -10 29 -11 37 -3 7 7 12 5 17 -6
3 -10 18 -30 33 -46 21 -22 29 -26 38 -16 7 7 9 16 5 20 -26 29 252 -153 382
-250 67 -49 148 -108 181 -129 105 -69 254 -203 478 -430 432 -436 536 -572
735 -957 90 -173 139 -285 133 -304 -11 -35 -8 -52 11 -72 17 -18 19 -27 11
-45 -11 -23 -11 -23 -24 7 -7 17 -13 35 -14 41 0 6 -5 18 -12 25 -6 8 -53 97
-105 199 -206 404 -282 514 -567 825 -96 104 -329 342 -397 405 -136 127 -486
395 -739 567 -33 22 -78 56 -101 74 -22 19 -73 48 -112 64 -40 17 -72 33 -72
38 0 12 53 8 82 -7z m112 -42 c3 -8 2 -12 -4 -9 -6 3 -10 10 -10 16 0 14 7 11
14 -7z m-4709 -84 c-3 -5 -12 -10 -18 -10 -7 0 -6 4 3 10 19 12 23 12 15 0z
m-575 -193 c0 -2 -10 -12 -21 -23 -22 -19 -22 -19 -8 4 12 19 29 30 29 19z
m264 -63 c-9 -13 -20 -24 -24 -24 -12 0 -59 -48 -53 -54 4 -3 -3 -6 -15 -6
-12 0 -22 3 -22 7 0 13 74 72 84 66 6 -3 8 -2 3 2 -9 10 22 47 34 39 5 -3 2
-16 -7 -30z m-279 14 c4 4 2 -3 -6 -15 -15 -25 -56 -46 -64 -33 -3 4 -1 20 5
34 8 22 13 24 34 17 13 -6 27 -7 31 -3z m400 -222 c-44 -41 -92 -82 -108 -91
-28 -17 -29 -17 -18 3 6 10 8 22 5 25 -15 15 69 123 86 112 6 -4 19 -4 28 0 9
4 28 9 42 11 14 2 26 8 28 14 2 6 7 9 10 5 3 -3 -30 -39 -73 -79z m-676 -46
c-12 -16 -29 -32 -37 -35 -12 -4 -11 0 4 17 10 12 24 28 29 35 21 26 24 12 4
-17z m79 -222 c-7 -4 -9 -8 -5 -8 13 0 -31 -50 -181 -207 -91 -96 -145 -144
-164 -148 -15 -4 -28 -12 -28 -18 0 -6 -6 -18 -13 -26 -7 -9 -19 -29 -25 -46
l-13 -30 21 25 20 25 -10 -29 c-9 -24 -69 -116 -76 -116 -1 0 -4 18 -6 39 -2
22 0 37 4 35 5 -3 8 4 8 15 0 23 15 28 24 9 3 -7 5 -4 5 7 -2 39 2 50 25 80
14 17 51 64 84 105 64 82 70 89 169 205 93 110 99 114 140 102 23 -7 29 -13
21 -19z m221 -80 c-12 -10 -18 -18 -14 -18 3 0 0 -6 -7 -14 -7 -8 -40 -46 -73
-84 -33 -38 -82 -85 -110 -105 -27 -21 -92 -79 -142 -130 -51 -52 -93 -92 -93
-89 0 2 10 18 22 35 12 17 21 40 20 51 -2 31 33 82 132 194 83 95 144 141 166
127 6 -3 10 0 10 8 0 17 42 47 65 47 8 0 15 -5 15 -11 0 -5 4 -8 10 -4 5 3 7
13 4 23 -5 14 -4 15 5 2 8 -12 6 -19 -10 -32z m-733 -123 c-19 -20 -21 -42 -3
-48 20 -6 -56 -120 -87 -128 -22 -6 -26 -4 -26 12 0 11 7 34 16 52 20 39 104
140 111 133 3 -3 -2 -12 -11 -21z m-26 -478 c0 -2 -10 -12 -22 -23 l-23 -19
19 23 c18 21 26 27 26 19z m-46 -74 c-38 -58 -86 -149 -120 -227 -44 -100 -64
-124 -31 -36 39 102 40 105 47 110 4 3 22 34 40 70 31 59 67 110 78 110 2 0
-4 -12 -14 -27z m-313 -216 c-10 -9 -11 -8 -5 6 3 10 9 15 12 12 3 -3 0 -11
-7 -18z m-27 -70 c-9 -26 -20 -49 -24 -52 -5 -3 -2 12 5 32 7 21 16 47 19 57
4 10 9 17 11 14 3 -2 -2 -26 -11 -51z m8450 28 c3 -9 0 -15 -9 -15 -8 0 -15 7
-15 15 0 8 4 15 9 15 5 0 11 -7 15 -15z m-20 -37 c-4 -6 -10 -5 -15 3 -14 22
-10 33 6 19 8 -7 12 -17 9 -22z m39 -76 c12 -16 16 -62 5 -62 -4 0 -8 8 -8 17
0 9 -7 24 -15 33 -10 11 -13 24 -8 36 5 14 8 15 11 3 3 -7 9 -20 15 -27z
m-8513 -19 c-11 -17 -11 -17 -6 0 3 10 6 24 7 30 0 9 2 9 5 0 3 -7 0 -20 -6
-30z m8760 -94 c0 -6 7 -9 15 -5 17 6 20 -5 4 -21 -8 -8 -8 -13 0 -17 6 -4 11
-1 11 6 1 16 14 -6 24 -39 6 -19 3 -23 -13 -23 -12 0 -21 6 -21 14 0 8 -5 16
-11 18 -5 2 -11 11 -13 20 -1 10 -5 21 -9 24 -11 11 -8 34 3 34 6 0 10 -5 10
-11z m-8623 -543 c-8 -20 -21 -20 -41 0 -13 12 -14 20 -5 36 l11 20 20 -20
c12 -12 18 -27 15 -36z m8434 -6 c10 0 19 5 19 11 0 5 5 7 10 4 15 -9 -7 -35
-30 -35 -18 0 -31 20 -29 43 1 7 3 4 6 -5 2 -10 13 -18 24 -18z m-8660 -13
c53 -41 59 -110 11 -147 -50 -40 -114 -17 -131 46 -11 40 -7 60 22 92 23 24
72 29 98 9z m8969 -127 c40 -40 16 -112 -42 -126 -38 -8 -93 44 -83 78 19 63
85 88 125 48z m23 -2340 c44 -39 61 -79 55 -134 -9 -79 -58 -126 -131 -126
-29 0 -34 -5 -51 -46 -10 -25 -21 -43 -24 -40 -3 3 -12 0 -20 -7 -13 -10 -14
-7 -9 23 4 19 15 42 25 50 18 15 18 16 -4 32 -28 22 -64 96 -64 134 0 16 8 45
19 64 43 82 141 106 204 50z m-8970 -82 c11 -13 17 -37 17 -68 0 -41 -4 -52
-27 -70 -36 -28 -62 -22 -90 19 -31 46 -30 95 3 127 29 30 67 27 97 -8z m240
-305 c3 -24 1 -46 -4 -49 -5 -3 1 -14 13 -24 22 -17 36 -42 113 -215 40 -89
148 -290 234 -435 121 -205 453 -623 670 -844 210 -213 577 -541 703 -627 53
-36 57 -41 48 -64 -6 -17 -6 -25 1 -25 6 0 17 -7 25 -15 22 -21 7 -19 -32 6
-19 11 -32 25 -29 30 4 5 0 6 -8 3 -15 -6 -87 56 -87 75 0 6 7 11 16 11 14 0
14 3 4 15 -7 8 -21 15 -31 15 -11 0 -19 5 -19 10 0 6 -7 10 -16 10 -8 0 -12
-4 -9 -10 3 -5 1 -10 -4 -10 -6 0 -11 5 -11 10 0 6 -6 10 -14 10 -8 0 -21 6
-28 13 -7 6 -36 30 -63 52 -123 97 -289 252 -540 501 -259 258 -336 342 -439
484 -26 36 -67 90 -92 120 -63 77 -168 272 -299 552 -9 20 -13 42 -9 49 4 7 3
9 -4 5 -13 -8 -47 78 -37 93 3 7 3 11 -2 10 -20 -3 -27 2 -13 11 13 9 13 10 0
10 -20 0 -86 202 -75 228 5 9 7 31 6 47 -2 28 -2 29 12 10 8 -11 17 -39 20
-62z m8367 17 l22 -31 -78 -192 c-151 -375 -349 -727 -548 -974 -197 -243
-515 -575 -751 -781 -164 -144 -425 -335 -439 -321 -13 12 -56 11 -56 -1 0 -5
-9 -10 -20 -10 -11 0 -20 4 -20 8 0 22 112 97 124 84 4 -4 6 -2 4 5 -1 6 44
46 102 90 223 166 414 337 611 550 340 366 425 467 543 648 190 289 338 584
465 928 6 15 13 27 15 27 3 0 14 -14 26 -30z m-8541 -126 c17 -42 31 -78 29
-80 -10 -9 -58 83 -58 111 0 23 -3 26 -10 15 -8 -12 -10 -11 -10 8 0 40 15 23
49 -54z m8709 1 c3 -47 -89 -267 -230 -550 -121 -243 -160 -311 -227 -400 -25
-33 -78 -104 -119 -159 -41 -54 -104 -130 -141 -170 -37 -39 -81 -87 -97 -106
-59 -70 -190 -203 -229 -232 -45 -33 -72 -59 -305 -293 -90 -91 -200 -191
-243 -223 -44 -31 -120 -89 -171 -127 -50 -39 -109 -82 -131 -95 -22 -13 -70
-46 -108 -72 -89 -64 -246 -150 -258 -143 -13 9 -11 41 4 53 17 14 80 50 164
93 39 20 77 42 85 48 7 5 29 23 48 39 19 15 64 48 100 72 68 45 109 78 244
195 45 39 106 86 137 106 30 20 124 104 209 185 84 82 165 160 179 174 14 14
80 87 146 163 66 76 146 169 178 205 151 173 298 388 446 652 46 81 198 405
252 537 37 91 63 109 67 48z m142 -70 c12 -14 4 -57 -21 -110 -5 -11 -27 -69
-50 -130 -36 -97 -72 -178 -55 -122 16 50 18 67 7 67 -6 0 -11 -9 -11 -21 0
-13 -4 -18 -12 -13 -7 4 -10 4 -6 0 6 -7 -1 -38 -18 -81 -7 -18 -6 -18 9 -6
15 12 15 10 1 -33 -17 -50 -30 -62 -20 -18 6 25 6 25 -14 -7 -12 -19 -22 -42
-23 -52 -1 -13 -5 -15 -13 -8 -14 12 -24 -9 -24 -52 0 -18 -4 -28 -10 -24 -6
4 -7 12 -3 18 3 7 -4 3 -16 -8 l-23 -20 16 30 c15 29 180 412 234 543 27 66
32 71 52 47z m-8720 -204 c53 -141 266 -540 372 -699 61 -91 113 -175 116
-186 3 -12 10 -24 16 -28 8 -5 7 -11 -1 -19 -9 -9 -8 -17 4 -35 29 -45 -2 -23
-55 39 -149 175 -299 441 -451 802 -78 187 -77 183 -73 225 l4 35 24 -40 c13
-22 33 -64 44 -94z m-175 -91 c9 -16 22 -30 30 -30 19 0 27 -17 63 -127 17
-50 38 -105 47 -122 17 -34 10 -42 -11 -13 -13 15 -13 14 -5 -9 5 -15 6 -31 0
-40 -6 -10 -9 -10 -9 -1 0 6 1 14 3 15 1 2 -4 11 -11 20 -11 13 -11 19 0 36
10 16 10 23 0 33 -9 9 -12 7 -12 -12 -1 -23 -2 -23 -11 -7 -6 11 -12 24 -13
30 -1 7 -10 30 -20 52 -23 52 -76 205 -71 205 3 0 11 -13 20 -30z m200 -397
c21 -43 43 -94 50 -113 16 -46 93 -184 133 -239 18 -24 32 -48 32 -52 0 -4 32
-54 71 -111 93 -134 183 -294 173 -309 -4 -7 -3 -9 2 -6 6 3 15 -3 22 -14 9
-14 9 -19 1 -19 -8 0 -6 -7 4 -18 27 -30 8 -33 -21 -4 -27 28 -174 240 -224
325 -15 27 -25 53 -22 59 4 6 2 8 -3 5 -6 -4 -14 5 -18 20 -3 14 -24 47 -46
71 -22 25 -37 52 -34 59 2 8 1 12 -4 9 -5 -3 -8 5 -8 18 0 14 -9 37 -20 53
-11 15 -18 34 -16 40 3 7 -1 29 -7 49 -9 27 -15 33 -21 23 -6 -10 -9 -4 -9 17
0 39 -7 46 -33 33 -14 -8 -18 -8 -13 0 4 6 4 11 -1 11 -16 0 -66 127 -53 135
6 3 10 0 10 -7 0 -10 3 -9 10 2 5 9 5 19 -2 27 -7 9 -7 13 0 13 5 0 27 -35 47
-77z m8395 -80 c-64 -123 -88 -157 -75 -113 3 14 3 20 -2 14 -9 -12 -63 -28
-63 -19 0 15 83 165 98 176 14 11 15 11 5 -1 -21 -22 -15 -40 12 -40 16 0 25
6 25 15 0 8 3 15 8 15 8 0 41 71 43 93 1 6 3 4 6 -5 2 -9 -23 -70 -57 -135z
m-93 -155 c-3 -8 -6 -5 -6 6 -1 11 2 17 5 13 3 -3 4 -12 1 -19z m-56 -102
c-11 -18 -60 -99 -111 -180 -83 -133 -110 -166 -110 -135 0 6 -7 9 -15 5 -18
-6 -18 -2 -5 44 6 21 35 62 75 102 43 45 63 73 59 83 -4 8 -1 22 6 30 6 8 8
20 4 26 -4 7 -3 9 4 5 6 -3 13 3 17 14 4 11 16 21 28 22 41 2 46 3 53 11 15
15 13 6 -5 -27z m-7691 -216 c0 -5 -2 -10 -4 -10 -3 0 -8 5 -11 10 -3 6 -1 10
4 10 6 0 11 -4 11 -10z m123 -69 c27 -13 115 -90 242 -214 110 -106 224 -217
254 -245 51 -48 53 -52 37 -68 -16 -16 -19 -15 -44 8 -15 13 -49 44 -77 69
-88 79 -404 391 -402 398 2 9 -45 57 -63 64 -10 4 -11 6 -2 6 7 1 32 -8 55
-18z m7091 -200 c6 -9 -47 -81 -113 -156 -20 -22 -52 -60 -71 -84 -77 -95
-118 -140 -221 -243 -59 -58 -134 -126 -166 -150 -32 -23 -67 -51 -77 -60 -22
-20 -46 -24 -46 -7 0 5 5 7 10 4 6 -3 10 3 10 14 0 11 -5 23 -11 27 -8 4 -3
12 12 20 13 7 21 13 17 14 -4 0 9 15 30 34 177 160 288 262 290 269 10 22 286
315 302 320 24 8 29 7 34 -2z m-6999 -121 c3 -5 2 -10 -4 -10 -5 0 -13 5 -16
10 -3 6 -2 10 4 10 5 0 13 -4 16 -10z m10 -71 c11 -17 -1 -21 -15 -4 -8 9 -8
15 -2 15 6 0 14 -5 17 -11z m55 -65 c0 4 11 1 25 -8 14 -9 31 -14 37 -10 6 4
8 3 5 -3 -4 -6 3 -13 14 -16 11 -3 23 -15 26 -26 3 -12 9 -21 14 -21 5 0 4 -9
-3 -20 -11 -17 -8 -24 17 -50 16 -16 26 -32 23 -35 -9 -10 -119 108 -114 121
3 8 0 11 -10 7 -10 -4 -12 0 -7 13 4 11 3 15 -5 10 -11 -6 -42 30 -42 49 0 5
5 3 10 -5 5 -8 10 -11 10 -6z m588 -254 c34 0 202 -131 202 -157 0 -7 6 -13
14 -13 8 0 16 -5 18 -11 2 -6 28 -17 57 -25 32 -8 91 -39 151 -78 53 -36 109
-70 123 -77 15 -7 27 -20 27 -31 0 -10 5 -18 12 -18 6 0 9 -2 6 -5 -23 -23
-248 105 -423 240 -44 34 -102 77 -130 95 -56 37 -144 119 -107 101 19 -10 22
-9 23 6 1 13 3 11 6 -4 2 -13 12 -23 21 -23z m-343 -20 c3 -5 1 -10 -4 -10 -6
0 -11 5 -11 10 0 6 2 10 4 10 3 0 8 -4 11 -10z m49 -16 c13 -5 14 -10 5 -20
-8 -10 -14 -11 -24 -1 -7 7 -11 15 -8 20 5 9 7 9 27 1z m49 -10 c-8 -4 -9 -13
-3 -30 7 -17 6 -24 -2 -24 -7 0 -3 -7 8 -15 10 -8 14 -15 8 -15 -6 0 -21 11
-34 25 -23 24 -23 25 -5 45 10 11 23 20 29 19 7 0 6 -2 -1 -5z m5367 -64 c0
-5 -4 -10 -10 -10 -5 0 -10 5 -10 10 0 6 5 10 10 10 6 0 10 -4 10 -10z m-300
-162 c0 -43 -91 -98 -111 -67 -21 34 -10 56 39 76 53 22 72 20 72 -9z m-44
-283 c15 -20 24 -41 20 -51 -5 -14 -9 -13 -32 5 -29 23 -74 27 -105 11 -23
-13 -49 -61 -49 -93 0 -38 26 -52 95 -52 54 0 60 -2 44 -13 -25 -17 -81 -26
-113 -18 -28 7 -66 69 -66 107 0 33 47 107 78 123 15 9 44 15 64 16 31 0 41
-6 64 -35z m-3905 -94 c33 -33 37 -66 12 -93 -23 -26 -58 -22 -82 8 -23 30
-26 50 -11 88 13 35 44 33 81 -3z"/>
<path d="M6928 9503 c-33 -21 -52 -67 -38 -93 16 -30 61 -60 90 -60 91 0 110
120 25 156 -42 17 -44 17 -77 -3z"/>
<path d="M5085 9115 c-5 -2 -120 -6 -255 -8 -254 -5 -404 -23 -654 -77 -140
-31 -427 -120 -581 -182 -154 -61 -471 -220 -605 -303 -398 -246 -809 -621
-1087 -990 -293 -389 -497 -770 -642 -1202 -168 -499 -239 -993 -212 -1483 22
-417 84 -727 216 -1091 166 -461 336 -761 690 -1224 194 -252 474 -523 720
-694 50 -34 115 -80 145 -102 139 -101 497 -299 690 -383 153 -66 417 -158
565 -196 164 -42 438 -88 635 -105 386 -33 889 6 1267 100 342 84 672 218 983
398 478 277 801 554 1156 992 340 419 646 1011 764 1473 59 234 91 416 126
710 22 194 15 601 -14 812 -31 223 -40 271 -89 470 -136 559 -372 1040 -774
1575 -258 345 -788 801 -1184 1021 -145 81 -420 210 -550 258 -239 89 -568
173 -762 196 -214 25 -517 44 -548 35z m345 -115 c148 -13 425 -56 515 -80 39
-10 115 -31 169 -45 55 -15 127 -37 160 -50 34 -12 99 -37 146 -55 146 -56
411 -192 615 -316 102 -61 380 -271 510 -385 538 -468 950 -1098 1182 -1808
74 -228 128 -465 153 -671 6 -52 13 -108 15 -125 13 -89 13 -591 0 -725 -34
-375 -105 -691 -227 -1015 -254 -678 -775 -1376 -1328 -1780 -502 -367 -987
-589 -1543 -704 -241 -50 -405 -64 -747 -64 -324 0 -453 10 -736 59 -570 98
-1232 418 -1754 848 -311 256 -634 644 -874 1046 -146 246 -198 356 -302 635
-160 430 -246 952 -230 1390 25 626 143 1106 410 1660 159 330 448 744 696
999 482 495 1011 833 1601 1025 274 88 527 142 746 157 48 4 90 8 92 10 10 9
625 3 731 -6z"/>
<path d="M4540 8760 c-192 -24 -336 -53 -500 -101 -284 -84 -363 -115 -601
-234 -207 -104 -340 -190 -574 -372 -33 -26 -96 -74 -140 -107 -88 -66 -371
-347 -477 -473 -80 -96 -238 -321 -330 -471 -223 -365 -437 -906 -483 -1222
-9 -63 -26 -167 -37 -230 -13 -76 -22 -182 -25 -313 l-6 -199 445 5 445 4 22
-44 c11 -24 21 -48 21 -54 0 -7 -149 -10 -462 -8 l-462 2 3 -99 c4 -159 55
-496 102 -671 86 -323 253 -710 429 -993 75 -120 193 -288 231 -329 l22 -24
101 105 c155 160 713 706 741 724 35 23 62 10 70 -34 l7 -37 -179 -169 c-248
-236 -673 -659 -673 -669 0 -12 40 -59 83 -96 28 -25 34 -28 30 -12 -4 15 87
111 407 431 387 386 414 412 441 406 18 -3 29 -1 29 5 0 8 5 7 15 -1 8 -7 24
-10 35 -7 17 4 18 2 9 -14 -5 -10 -14 -19 -19 -19 -6 0 -10 -4 -10 -10 0 -12
-716 -722 -799 -791 -35 -30 -68 -53 -73 -51 -18 5 12 -35 61 -81 49 -46 78
-60 68 -33 -3 8 46 63 126 142 73 71 263 259 423 417 l291 289 47 -7 c37 -6
46 -11 46 -27 0 -32 -805 -823 -870 -856 l-40 -20 71 -66 c40 -37 75 -65 78
-64 3 2 62 62 130 133 272 283 766 785 774 785 4 0 22 -10 40 -22 18 -13 34
-24 36 -25 13 -7 -55 -85 -161 -183 -67 -63 -150 -144 -183 -179 -33 -35 -172
-177 -308 -316 l-249 -252 24 -25 c51 -54 279 -211 453 -313 206 -121 542
-270 783 -347 222 -71 575 -133 825 -145 l137 -6 0 619 c0 634 9 1052 21 999
5 -24 7 -25 8 -7 0 12 6 22 11 22 6 0 10 -10 11 -22 0 -13 3 -17 6 -10 9 22
21 13 26 -21 16 -89 22 -400 18 -961 l-3 -619 168 6 c520 17 1125 206 1615
503 206 124 449 300 449 324 0 5 -24 31 -52 57 -104 94 -405 401 -467 476 -35
43 -67 77 -71 77 -8 0 -289 275 -310 303 -7 10 -9 17 -4 15 5 -2 11 2 12 7 11
30 23 41 47 43 23 2 59 -32 248 -225 457 -469 672 -688 678 -691 3 -1 34 24
69 57 l64 60 -69 53 c-66 50 -761 735 -820 808 -15 19 -37 46 -49 60 -19 23
-19 24 -1 8 15 -12 35 -15 76 -12 l56 3 411 -412 c226 -227 418 -421 425 -431
14 -19 16 -19 40 -3 24 16 77 77 77 89 0 3 -35 39 -77 79 -42 41 -236 233
-430 427 l-354 354 28 33 c16 19 35 34 43 34 8 1 205 -191 437 -425 l422 -426
56 53 55 54 -357 351 c-197 193 -391 382 -432 422 -79 77 -84 92 -42 143 l19
23 33 -27 c19 -14 214 -204 434 -422 l400 -395 39 43 c212 233 501 799 615
1208 22 79 59 245 82 369 38 201 43 244 45 403 2 98 6 187 9 197 9 27 -14 411
-31 524 -21 142 -81 426 -110 523 -66 219 -287 703 -427 935 -82 136 -200 297
-300 407 -44 47 -94 109 -112 136 -63 96 -284 294 -598 537 -333 257 -701 439
-1106 547 -159 43 -267 62 -494 90 -215 25 -775 26 -977 1z m543 -412 c4 -149
7 -505 7 -790 l0 -518 -55 0 -55 0 0 783 c0 431 3 787 7 790 3 4 25 7 48 7
l42 0 6 -272z m323 256 c21 -10 45 -34 61 -61 49 -84 17 -206 -63 -239 l-34
-14 0 -636 0 -636 -22 6 c-13 3 -38 6 -57 6 l-34 0 6 640 5 640 -29 21 c-44
31 -62 73 -57 135 5 58 35 111 77 138 34 20 104 20 147 0z m-575 -41 c69 -75
71 -158 4 -232 l-35 -38 -2 -633 -3 -632 -47 -4 -48 -3 0 543 c0 299 -3 583
-6 633 -7 89 -7 90 -40 108 -47 25 -87 90 -87 140 0 55 29 111 72 141 31 22
45 25 95 21 54 -3 62 -7 97 -44z m-542 -128 c38 -20 88 -75 105 -117 21 -50
20 -97 -4 -165 -11 -32 -20 -61 -20 -66 0 -5 33 -44 74 -86 l74 -76 -6 -473
c-3 -335 -8 -475 -16 -476 -6 -2 -31 -8 -55 -14 l-44 -10 6 461 5 462 -56 75
c-31 41 -58 77 -60 79 -1 3 -23 -1 -49 -7 -92 -25 -193 37 -226 137 -21 65
-21 103 -2 167 17 58 64 108 115 123 42 12 123 5 159 -14z m1625 14 c86 -21
156 -110 156 -197 0 -60 -35 -146 -74 -180 -49 -43 -118 -67 -153 -54 -16 6
-42 13 -58 17 -28 5 -32 3 -43 -29 -7 -19 -33 -56 -58 -82 -36 -36 -44 -51
-39 -68 6 -16 24 -892 19 -904 -1 -1 -12 2 -25 7 -13 5 -36 12 -51 15 l-28 6
0 193 c0 105 -3 276 -7 379 l-6 186 -33 7 c-40 7 -54 29 -54 85 0 58 12 74 81
111 41 22 74 50 102 86 39 49 57 64 57 45 0 -4 10 -13 23 -21 l22 -14 -23 25
c-33 36 -62 120 -62 181 0 112 87 207 198 216 7 1 33 -4 56 -10z m-2274 -264
c34 -18 84 -72 106 -115 34 -65 21 -160 -32 -241 l-17 -26 130 -129 c71 -71
166 -168 210 -215 l81 -87 6 57 c3 31 8 140 12 243 l6 187 40 6 c24 4 44 3 51
-4 7 -7 7 -109 -1 -348 -7 -186 -12 -402 -12 -480 l0 -143 -27 -6 c-16 -3 -40
-9 -54 -14 l-26 -8 -5 189 -5 189 -149 153 c-185 189 -324 341 -324 354 0 6
10 17 22 25 20 14 16 14 -47 7 -89 -11 -139 2 -186 50 -81 81 -79 253 4 329
54 50 150 62 217 27z m2982 -10 c110 -73 131 -255 37 -339 -44 -41 -92 -56
-174 -56 -37 0 -55 -4 -47 -9 10 -6 -34 -58 -170 -197 -101 -104 -209 -219
-241 -256 l-57 -66 0 -196 c0 -178 -5 -218 -24 -187 -4 5 -24 12 -45 16 l-39
6 -6 92 c-11 192 -26 617 -26 739 0 127 0 128 24 134 49 12 61 3 68 -56 3 -30
6 -139 7 -242 1 -104 4 -188 9 -188 4 1 50 53 102 117 82 100 169 187 298 299
l34 29 -27 51 c-38 73 -43 147 -15 211 40 93 112 138 205 128 28 -4 66 -17 87
-30z m-3691 -354 c104 -96 262 -259 349 -363 45 -53 89 -100 98 -102 28 -9
578 -568 564 -573 -7 -3 -26 -16 -41 -29 l-29 -24 -394 397 c-216 218 -448
451 -515 516 -67 65 -136 139 -153 165 l-30 46 22 13 c41 22 64 14 129 -46z
m4278 22 c17 -10 30 -24 29 -31 -7 -32 -991 -1032 -1031 -1048 -8 -3 -31 5
-52 17 l-37 22 269 266 c148 146 288 281 311 299 23 19 61 59 84 90 79 107
359 402 381 402 9 0 29 -8 46 -17z m-3930 -741 c259 -258 431 -436 423 -439
-7 -3 -26 -16 -41 -29 l-29 -24 -428 421 c-648 636 -653 640 -626 650 12 5 27
20 34 33 11 25 11 25 121 -76 60 -56 305 -297 546 -536z m4146 588 c3 -5 15
-10 26 -10 11 0 19 -7 19 -17 0 -10 -229 -246 -520 -536 l-520 -519 -28 29
c-15 17 -34 32 -42 35 -18 6 967 987 1006 1002 13 6 24 13 24 18 0 11 28 10
35 -2z m-752 -61 c30 -23 52 -86 44 -121 -9 -35 -45 -78 -74 -89 -34 -13 -97
6 -115 34 -71 109 48 253 145 176z m-3152 -18 c31 -31 39 -84 20 -134 -11 -27
-80 -60 -108 -51 -62 20 -83 48 -83 110 0 28 8 44 34 70 45 45 95 47 137 5z
m-529 -595 l488 -484 -37 -37 -36 -36 -469 468 c-258 257 -493 495 -521 527
-48 55 -50 59 -25 53 21 -6 30 -3 38 12 10 20 11 20 43 1 17 -11 251 -237 519
-504z m4609 467 c16 -16 29 -33 29 -39 0 -7 -218 -232 -484 -500 l-484 -489
-25 28 c-14 15 -31 27 -37 27 -6 0 -10 7 -8 15 3 13 965 985 976 985 2 0 17
-12 33 -27z m-3979 -60 c52 -51 56 -63 32 -88 -16 -15 -19 -14 -51 17 -41 39
-67 84 -59 104 9 24 29 16 78 -33z m2883 27 c8 -14 -12 -49 -53 -92 -27 -29
-39 -35 -49 -27 -28 24 -10 62 48 105 36 26 45 29 54 14z m-131 -111 c54 -42
19 -147 -56 -165 -22 -5 -34 0 -58 24 -42 42 -39 91 8 145 21 23 73 22 106 -4z
m-2580 -10 c29 -23 56 -69 56 -95 0 -10 -10 -28 -22 -41 -53 -56 -158 -8 -158
73 0 73 67 108 124 63z m-998 -488 l487 -483 -32 -19 c-17 -10 -31 -26 -31
-35 0 -8 -4 -14 -10 -12 -14 4 -855 845 -942 941 -70 76 -81 103 -34 78 26
-15 46 -8 46 15 0 10 5 12 15 7 8 -5 234 -226 501 -492z m4974 457 c0 -6 7
-20 16 -29 15 -17 15 -21 -1 -46 -31 -49 -928 -939 -932 -925 -6 15 -29 39
-50 51 -14 7 74 99 466 490 265 265 486 479 491 476 6 -4 10 -11 10 -17z
m-1532 -137 c-36 -49 -175 -181 -190 -181 -36 0 -16 33 86 145 75 82 79 85 97
69 15 -14 17 -20 7 -33z m-2187 -168 c9 -16 9 -27 2 -34 -12 -12 -90 47 -152
117 -51 58 -66 86 -57 110 6 15 24 1 100 -75 52 -52 100 -104 107 -118z m1279
-115 c341 -41 690 -166 1015 -363 219 -132 348 -237 609 -494 152 -150 263
-289 421 -530 86 -130 245 -407 245 -426 0 -3 -22 -5 -48 -5 -39 0 -53 -5 -72
-25 l-23 -25 24 -20 c13 -11 29 -24 35 -29 7 -6 16 -5 24 2 16 16 -16 -64 -54
-133 -188 -348 -350 -572 -573 -790 -217 -212 -297 -280 -448 -379 -331 -217
-742 -383 -1083 -437 -209 -33 -623 -29 -782 8 -328 77 -580 174 -860 332
-458 259 -872 680 -1153 1171 -74 129 -135 257 -130 271 5 15 57 15 81 0 7 -4
12 -3 12 3 0 18 -52 51 -79 50 -18 0 -21 -2 -10 -7 14 -6 14 -9 -2 -26 -16
-16 -19 -17 -19 -4 0 9 -7 21 -15 28 -13 11 -9 24 34 105 165 305 386 609 610
838 272 278 512 461 801 611 283 146 575 241 815 265 61 6 124 13 140 15 62 7
413 3 485 -6z m-3122 -34 c43 -9 111 -69 133 -118 10 -23 19 -59 19 -80 l0
-39 126 7 125 7 109 -113 c60 -62 164 -165 233 -228 l124 -115 -36 -41 -36
-42 -217 221 c-209 212 -218 219 -249 213 -17 -3 -60 -6 -95 -6 -35 0 -64 -3
-64 -7 1 -5 37 -35 81 -68 45 -33 99 -80 121 -105 23 -25 104 -109 181 -187
l141 -143 -38 -32 -38 -33 -146 1 c-81 1 -243 4 -359 9 l-213 8 -9 -25 c-14
-38 -73 -83 -126 -98 -129 -36 -267 72 -268 213 -1 67 41 149 96 185 50 33
131 41 192 18 55 -21 110 -81 126 -138 7 -24 13 -44 13 -45 3 -5 580 -24 599
-19 22 5 16 14 -82 113 -59 60 -138 137 -177 173 -80 74 -104 106 -108 147 -4
34 -30 42 -46 14 -17 -33 -107 -73 -161 -73 -160 0 -259 173 -184 321 42 83
135 125 233 105z m5786 -20 c40 -21 94 -71 112 -106 31 -60 9 -186 -43 -240
-41 -42 -118 -71 -174 -65 -56 7 -120 37 -146 70 -17 21 -26 23 -137 25 l-119
3 -214 -217 c-117 -119 -213 -211 -213 -205 0 7 -14 26 -31 42 l-31 29 129
127 c72 71 173 174 225 230 l95 102 132 -6 131 -6 0 48 c0 140 156 233 284
169z m-329 -411 c-21 -49 -18 -46 -202 -214 -94 -87 -156 -150 -148 -153 7 -2
150 -2 318 1 l306 6 6 39 c15 89 113 168 207 168 165 0 260 -159 185 -312 -35
-72 -88 -110 -161 -116 -86 -7 -157 26 -196 91 l-19 30 -153 -2 c-206 -2 -541
-21 -551 -31 -5 -4 -27 12 -49 36 -39 42 -40 45 -24 68 8 14 24 27 35 31 11 3
36 28 56 55 34 47 165 171 270 257 39 32 116 80 133 83 1 0 -5 -17 -13 -37z
m189 -629 c19 -19 21 -87 3 -102 -8 -7 -78 -8 -226 -1 -210 10 -214 10 -233
34 -11 14 -26 31 -33 39 -12 11 -8 14 23 20 20 3 105 6 187 6 83 1 168 5 190
9 61 13 72 12 89 -5z m-5380 -15 c121 -6 222 -11 222 -12 1 -1 -12 -18 -29
-38 l-32 -37 -207 -6 -207 -6 -6 45 c-9 55 -1 79 22 71 9 -4 116 -11 237 -17z
m-745 -109 c22 -11 49 -35 61 -55 l22 -35 351 0 c194 0 362 -3 375 -6 17 -5
20 -10 12 -19 -6 -7 -19 -30 -29 -50 l-18 -37 -189 1 c-104 1 -262 4 -351 8
-139 5 -163 4 -163 -9 0 -8 -15 -29 -34 -47 -61 -59 -157 -52 -216 15 -26 30
-30 42 -30 92 0 126 103 196 209 142z m6761 -7 c33 -19 70 -80 70 -114 -1 -72
-76 -156 -148 -166 -52 -7 -115 25 -132 68 l-14 32 -351 -8 -352 -7 -31 49
c-18 28 -32 52 -32 56 0 3 168 7 374 9 l374 3 23 29 c12 15 36 37 53 47 40 24
127 25 166 2z m-6132 -401 l-29 -59 -322 -6 c-177 -4 -377 -7 -444 -7 l-122 0
6 38 c10 66 3 64 320 73 158 5 295 11 303 13 8 2 83 4 166 5 l151 1 -29 -58z
m6055 43 c200 -1 197 0 197 -74 l0 -44 -207 7 c-115 3 -315 9 -445 12 -236 7
-237 7 -242 30 -3 12 -18 37 -33 55 l-28 32 290 -8 c160 -5 370 -10 468 -10z
m232 -73 c-5 -5 -25 43 -25 61 1 7 7 -3 16 -22 8 -19 12 -36 9 -39z m3 -216
c2 -24 -2 -42 -10 -47 -7 -5 -208 -9 -447 -9 -413 0 -433 1 -419 18 9 9 23 32
32 50 l17 32 412 -2 412 -3 3 -39z m-6888 -204 c31 -15 64 -16 295 -11 148 4
267 3 277 -2 18 -10 44 -86 33 -97 -3 -3 -126 -8 -274 -10 l-268 -4 4 -23 c9
-42 -16 -102 -57 -139 -34 -30 -47 -36 -86 -36 -57 0 -93 19 -129 66 -56 74
-43 196 27 245 57 41 108 44 178 11z m6705 8 c38 -24 81 -83 89 -125 13 -66
-34 -153 -101 -186 -101 -49 -213 27 -213 144 l0 45 -255 7 -256 7 7 47 c3 25
9 49 13 53 3 4 121 3 261 -1 233 -6 258 -6 295 11 54 24 120 23 160 -2z m-601
-262 c8 -13 20 -44 27 -71 13 -52 5 -72 -38 -88 -33 -12 -50 -2 -63 37 -14 42
-35 54 -96 54 l-46 0 6 31 c3 17 6 38 6 45 0 11 21 14 95 14 87 0 96 -2 109
-22z m-5499 -10 c22 -6 46 -11 53 -9 7 1 11 -2 10 -6 -4 -15 25 -50 41 -48 9
1 10 0 4 -2 -7 -3 -13 -8 -13 -12 0 -5 -28 -14 -62 -21 -46 -9 -69 -19 -89
-41 -45 -48 -103 -34 -115 27 -8 45 11 111 34 117 34 9 98 7 137 -5z m205 -70
c0 -4 -15 -6 -34 -5 -36 2 -39 17 -3 17 16 0 18 3 9 12 -7 7 -12 21 -12 33 1
15 5 12 20 -15 11 -19 19 -38 20 -42z m5675 -137 c105 -49 149 -165 109 -289
-27 -82 -90 -133 -184 -147 -69 -10 -145 32 -187 105 -18 30 -33 67 -33 82 l0
28 -254 0 c-200 0 -268 3 -317 16 -34 9 -73 14 -86 11 -23 -4 -25 -2 -19 26 4
17 11 36 16 41 5 5 147 11 330 14 l321 5 46 49 c71 74 174 98 258 59z m-6227
-13 c30 -14 53 -35 71 -64 l26 -43 221 -1 c240 0 291 -5 274 -25 -6 -7 -9 -28
-8 -46 l3 -34 -242 -3 -243 -2 0 -28 c-1 -71 -77 -165 -145 -178 -104 -19
-181 16 -240 111 -27 43 -30 57 -30 126 0 70 3 81 30 120 61 86 184 115 283
67z m734 -133 c-2 -14 -10 -25 -17 -25 -7 0 -15 -9 -18 -20 -3 -13 0 -20 10
-20 8 0 11 -4 8 -10 -8 -13 -62 -13 -70 1 -4 6 -14 8 -22 4 -12 -4 -13 -3 -5
8 7 8 9 16 6 20 -3 3 3 3 15 0 12 -3 21 -1 21 6 0 6 -7 11 -15 11 -8 0 -15 2
-15 4 0 2 -3 11 -6 19 -6 18 12 24 72 26 39 1 41 0 36 -24z m4801 -337 c108
-104 198 -188 201 -188 4 0 24 12 45 26 48 31 135 43 183 24 94 -37 138 -102
138 -203 0 -106 -41 -171 -129 -202 -77 -27 -149 -14 -208 38 -46 41 -63 82
-63 155 0 57 -1 60 -42 93 -77 61 -320 293 -354 338 l-33 43 26 34 c14 19 29
33 34 32 4 -2 95 -87 202 -190z m-4821 68 c-22 -24 -115 -117 -207 -208 l-168
-164 -1 -74 c-1 -91 -22 -126 -94 -162 -129 -63 -270 4 -308 146 -26 99 13
193 98 237 78 40 156 34 226 -18 l32 -24 108 108 c59 60 149 146 200 191 l92
82 31 -35 31 -35 -40 -44z m162 -108 c9 -12 16 -27 16 -32 0 -5 -58 -68 -129
-140 -75 -76 -135 -146 -144 -168 -18 -44 -56 -71 -94 -66 -25 3 -28 8 -31 42
-2 21 2 51 8 67 12 27 62 59 94 59 29 0 67 31 61 50 -4 11 21 45 76 106 108
118 115 122 143 82z m4393 -52 c64 -59 153 -164 153 -179 0 -18 -42 -3 -96 31
-53 35 -174 151 -174 167 0 16 22 45 34 45 8 0 45 -29 83 -64z m-609 -186 c7
-11 11 -20 9 -20 -2 0 -12 9 -22 20 -10 11 -14 20 -9 20 5 0 15 -9 22 -20z
m834 -33 c23 -18 49 -45 58 -60 14 -27 14 -29 -9 -48 -14 -11 -38 -19 -62 -19
-50 0 -69 27 -69 96 0 76 15 82 82 31z m-1017 -97 c-5 -17 -10 -19 -21 -9 -19
15 -18 27 4 31 23 6 25 3 17 -22z m-2658 -106 c-3 -3 -12 -4 -19 -1 -8 3 -5 6
6 6 11 1 17 -2 13 -5z m2413 -10 c0 -8 -4 -12 -10 -9 -5 3 -10 10 -10 16 0 5
5 9 10 9 6 0 10 -7 10 -16z m98 -115 c15 -18 31 -39 36 -48 14 -24 -32 18 -56
52 -26 37 -13 34 20 -4z m-396 -140 l4 -121 45 -42 c25 -22 74 -68 109 -100
36 -32 125 -116 198 -187 107 -102 134 -134 138 -161 6 -32 8 -33 44 -30 80 8
160 -40 202 -122 17 -33 20 -53 16 -113 -6 -90 -32 -133 -102 -168 -109 -55
-214 -16 -273 100 -34 67 -28 145 16 217 17 27 31 50 31 51 0 4 -439 447 -442
447 -4 0 -3 31 -13 -367 l-8 -332 29 -11 c39 -15 82 -57 106 -104 16 -32 19
-53 16 -101 -10 -122 -68 -183 -182 -192 -56 -5 -70 -2 -114 22 -36 20 -57 40
-75 74 -37 69 -41 103 -22 181 l17 69 -31 38 c-36 43 -24 55 28 28 23 -11 45
-14 80 -9 l48 6 7 359 c4 198 9 366 12 374 3 8 22 20 42 27 l37 12 -30 6 -30
5 -3 128 c-1 71 1 126 5 124 5 -3 24 -2 43 3 19 4 38 8 41 9 4 1 8 -54 11
-120z m-1835 -16 c-2 -21 -4 -6 -4 32 0 39 2 55 4 38 2 -18 2 -50 0 -70z
m1450 -10 c-3 -10 -5 -2 -5 17 0 19 2 27 5 18 2 -10 2 -26 0 -35z m-1742 -4
c50 -44 46 -79 -18 -146 -43 -46 -88 -59 -125 -37 -28 16 -29 18 -20 68 11 60
48 112 92 132 17 7 32 13 33 14 1 0 18 -14 38 -31z m2539 -21 c41 -48 45 -78
16 -126 -26 -42 -44 -48 -85 -29 -39 18 -62 49 -71 93 -5 26 0 37 29 67 19 20
44 37 55 37 12 0 36 -18 56 -42z m-1632 3 c-6 -4 -12 -27 -15 -51 -3 -42 -4
-41 -5 12 -2 49 0 56 14 51 9 -3 11 -8 6 -12z m-276 -41 c15 0 24 7 27 23 3
12 5 -21 5 -73 -1 -52 4 -108 10 -123 8 -19 12 -103 12 -243 0 -207 1 -214 20
-214 56 0 81 -91 38 -145 -19 -25 -26 -27 -70 -23 -32 4 -57 13 -70 26 -20 20
-21 33 -25 339 -4 346 3 494 20 456 6 -14 19 -23 33 -23z m821 -97 c-2 -21 -4
-6 -4 32 0 39 2 55 4 38 2 -18 2 -50 0 -70z m-1082 18 c26 -6 31 -12 37 -51 3
-25 7 -99 7 -166 1 -66 4 -216 8 -332 l6 -211 33 -11 c44 -15 99 -80 113 -135
13 -53 0 -133 -30 -181 -12 -20 -41 -43 -75 -60 -215 -105 -396 175 -221 343
23 22 50 43 61 47 17 6 18 17 12 194 -14 418 -19 503 -28 500 -5 -2 -35 -33
-66 -70 -76 -88 -314 -348 -340 -371 l-20 -19 30 -49 c50 -80 48 -177 -5 -253
-25 -35 -110 -76 -160 -76 -134 0 -235 167 -178 295 27 61 45 82 95 107 32 17
51 19 98 14 l58 -6 0 44 c0 38 4 47 35 71 20 14 83 79 140 143 58 64 146 151
196 193 l92 77 36 -16 c20 -8 50 -18 66 -21z m1464 -352 c1 -293 0 -307 -19
-332 -24 -31 -78 -50 -114 -41 -84 21 -89 174 -6 174 l29 0 3 238 c3 209 5
241 21 265 10 15 15 32 12 37 -4 6 7 10 24 10 25 0 31 4 32 23 1 12 5 2 10
-23 4 -25 8 -183 8 -351z m-1991 299 c-3 -7 -14 -17 -26 -23 -12 -5 -22 -18
-22 -27 0 -22 -23 -24 -40 -3 -14 16 -6 35 16 35 8 0 14 5 14 11 0 5 5 7 10 4
6 -3 10 -1 10 4 0 6 9 11 21 11 12 0 19 -5 17 -12z m-155 -84 c32 -30 47 -63
47 -105 0 -43 -15 -65 -51 -78 -53 -18 -79 -13 -115 23 -47 47 -48 100 -3 151
39 44 81 47 122 9z m1247 10 c14 -3 28 -12 32 -18 5 -6 8 -224 8 -484 l-1
-473 30 -38 c55 -70 66 -141 31 -198 -26 -43 -68 -63 -134 -63 -44 0 -60 5
-86 26 -41 35 -60 74 -60 125 0 53 39 123 79 140 20 9 31 23 35 42 3 16 6 238
6 494 0 514 -6 466 60 447z m601 4 c5 -7 9 -228 9 -491 l0 -477 23 -9 c30 -12
52 -38 76 -91 25 -56 26 -84 2 -137 -23 -51 -63 -73 -128 -73 -57 0 -105 26
-133 72 -34 56 -22 152 26 203 l25 27 -1 474 c0 282 3 481 9 492 12 22 80 29
92 10z m1304 6 c21 -8 55 -76 55 -110 0 -17 -13 -40 -39 -66 -36 -35 -44 -39
-83 -36 -35 2 -46 9 -65 37 -13 19 -23 47 -23 63 0 77 85 138 155 112z"/>
<path d="M6600 7945 c-29 -17 -132 -20 -163 -4 -21 10 -21 10 -3 -5 26 -21
127 -21 166 -1 17 9 30 18 30 20 0 7 -2 6 -30 -10z"/>
<path d="M4765 6470 c-174 -25 -294 -56 -485 -126 -116 -43 -396 -186 -507
-261 -111 -73 -243 -171 -268 -198 -11 -12 -47 -46 -80 -75 -99 -87 -438 -425
-472 -472 -45 -60 -203 -234 -231 -254 l-23 -16 7 60 c3 33 2 67 -3 77 -8 14
-16 8 -54 -38 -24 -30 -56 -63 -71 -73 -16 -11 -28 -22 -28 -25 0 -7 78 -19
125 -19 18 0 43 -8 56 -19 13 -10 78 -88 144 -172 341 -440 721 -780 1075
-963 179 -92 483 -204 681 -251 318 -74 551 -70 894 16 121 31 393 133 520
197 122 60 321 182 432 265 176 131 509 478 696 725 43 55 101 126 130 157
l52 55 82 6 c71 6 81 9 73 23 -9 17 -126 151 -321 367 -241 266 -524 523 -729
660 -101 68 -100 67 -100 51 0 -8 12 -19 28 -25 32 -11 112 -86 112 -105 0 -7
10 -13 22 -14 22 -2 73 -56 57 -61 -4 -2 -1 -14 7 -28 9 -13 14 -31 10 -39 -4
-12 -18 -6 -63 28 -32 24 -96 71 -143 103 -47 32 -106 74 -133 94 -171 129
-677 318 -937 350 -159 19 -419 19 -555 0z m331 -154 c19 -19 34 -41 34 -50 0
-8 -18 -25 -40 -36 -22 -11 -40 -23 -40 -27 0 -13 53 -84 69 -93 9 -4 57 -11
106 -14 156 -11 171 -15 182 -39 7 -15 27 -28 54 -36 76 -23 132 -57 208 -127
l73 -67 85 91 c46 51 91 92 98 92 7 0 27 -12 44 -26 l31 -26 -33 -45 c-33 -47
-98 -105 -129 -116 -27 -10 -22 -48 12 -89 37 -45 90 -144 90 -168 0 -10 -6
-23 -14 -29 -11 -10 -21 1 -52 56 -60 110 -94 153 -128 161 -28 7 -34 5 -58
-26 -15 -19 -57 -61 -94 -93 -80 -71 -164 -165 -164 -185 0 -8 2 -14 5 -14 3
0 71 54 152 120 82 66 152 119 157 117 5 -2 14 -11 20 -20 13 -20 -25 -63 -99
-110 -64 -40 -152 -104 -189 -136 -21 -19 -30 -22 -33 -13 -3 8 -18 27 -34 43
-35 36 -36 39 -3 70 14 13 48 52 76 86 61 77 145 164 181 188 15 9 27 25 27
35 0 18 -53 70 -71 70 -5 0 -18 -19 -30 -42 -12 -24 -59 -95 -104 -158 -45
-63 -93 -134 -105 -157 -26 -47 -32 -50 -50 -28 -14 17 24 87 141 260 82 121
90 130 108 136 17 6 -40 52 -76 64 -19 5 -23 3 -23 -17 0 -13 -34 -88 -76
-168 -41 -80 -85 -166 -96 -192 -24 -52 -24 -53 -63 -38 -20 8 -25 14 -17 23
6 7 51 94 101 194 49 99 94 184 100 188 17 10 13 39 -9 58 -35 30 -66 8 -84
-60 -9 -32 -30 -94 -47 -138 -17 -44 -43 -117 -58 -163 -23 -74 -28 -82 -46
-76 -11 3 -37 9 -58 11 -34 5 -38 8 -33 27 3 13 10 79 16 147 7 68 20 169 31
223 11 54 21 104 22 110 4 21 -48 18 -68 -4 -25 -28 -100 -28 -115 0 -10 19
-13 19 -40 5 l-28 -15 13 -51 c8 -29 19 -95 25 -148 7 -53 18 -132 26 -177 18
-103 18 -104 -5 -104 -16 0 -23 15 -40 88 -21 92 -52 289 -55 357 -3 48 -21
55 -77 29 -35 -15 -38 -19 -25 -33 7 -9 38 -93 69 -187 30 -93 64 -190 76
-214 16 -34 18 -46 9 -52 -19 -11 -48 -10 -48 3 0 5 -32 91 -70 190 -39 100
-73 198 -76 220 -6 37 -9 39 -41 39 -25 0 -36 -5 -40 -18 -2 -10 -25 -26 -53
-37 -27 -11 -48 -21 -46 -23 4 -4 57 10 88 23 19 8 37 -22 83 -140 15 -38 50
-114 76 -167 27 -54 49 -101 49 -106 0 -5 -12 -15 -27 -23 -16 -7 -31 -15 -34
-17 -4 -2 -7 12 -7 31 0 34 -75 197 -90 197 -5 0 -16 -6 -26 -13 -16 -12 -13
-21 42 -117 43 -76 57 -108 50 -118 -8 -9 -24 8 -66 68 -65 96 -83 108 -120
84 l-26 -17 89 -84 90 -84 -25 -20 -25 -21 -15 24 c-28 45 -143 158 -160 158
-17 0 -47 -27 -39 -34 201 -167 198 -164 185 -182 -12 -16 -14 -16 -33 2 -11
10 -46 37 -78 59 -32 22 -73 53 -91 68 -32 27 -34 28 -58 11 -15 -9 -26 -19
-26 -23 0 -4 54 -38 121 -75 66 -37 123 -74 125 -81 3 -7 0 -24 -6 -36 -11
-20 -13 -20 -22 -5 -5 9 -36 30 -69 47 -34 16 -92 50 -131 74 -61 38 -73 42
-94 33 -22 -10 -29 -6 -74 42 -28 29 -54 50 -57 46 -9 -8 18 -97 31 -102 6 -2
20 -5 31 -7 33 -5 344 -160 349 -174 10 -24 -4 -44 -23 -33 -10 5 -87 36 -172
70 -85 34 -171 73 -191 86 -21 13 -47 24 -58 24 -17 0 -20 -7 -20 -52 -1 -29
-7 -71 -15 -93 -8 -22 -18 -68 -21 -102 -5 -57 -4 -62 18 -74 25 -13 156 -15
346 -3 l113 6 -3 -33 c-3 -33 -5 -34 -58 -42 -30 -5 -130 -7 -222 -4 -164 4
-168 4 -189 -19 -24 -26 -22 -62 8 -131 9 -21 17 -55 19 -75 1 -20 13 -61 27
-90 14 -29 28 -64 32 -78 7 -33 109 -176 138 -194 45 -29 61 -28 84 7 35 50
279 307 293 307 4 0 14 -8 23 -18 15 -16 11 -23 -61 -102 -42 -47 -116 -124
-164 -173 -102 -101 -109 -123 -50 -151 20 -10 63 -35 94 -57 56 -38 109 -62
176 -79 30 -7 34 -6 43 17 5 13 9 29 9 34 0 7 105 282 140 366 6 15 15 20 30
16 27 -7 24 -24 -41 -190 -27 -70 -59 -159 -70 -198 l-21 -69 22 -18 c28 -23
57 -23 64 0 2 9 19 94 37 187 17 94 34 173 38 177 3 4 7 -29 9 -73 3 -74 -18
-240 -38 -301 -7 -24 -5 -28 20 -36 24 -9 31 -7 51 14 12 13 28 24 34 24 9 0
10 13 4 48 -4 26 -9 132 -11 235 -3 183 -2 188 17 185 27 -4 33 -47 39 -282 5
-174 7 -190 26 -208 34 -32 25 -80 -21 -103 -38 -20 -42 -20 -87 19 -34 28
-56 36 -138 51 -97 17 -219 57 -297 96 -61 31 -165 107 -177 129 -10 19 -12
19 -65 -8 -30 -15 -54 -32 -54 -38 -1 -14 -45 -44 -63 -44 -7 0 -19 -9 -26
-20 -15 -25 -34 -25 -56 -1 -17 18 -15 22 29 80 26 34 49 61 53 61 3 0 16 -9
28 -21 l21 -20 -4 23 c-2 13 2 38 10 56 13 32 13 34 -20 70 -18 20 -50 69 -70
109 -36 69 -39 72 -77 75 -55 4 -66 26 -33 70 l26 34 -24 87 c-13 48 -25 107
-27 132 -3 33 -12 53 -33 75 -48 50 -63 49 -110 -6 l-42 -48 -34 24 c-58 40
-79 63 -79 86 0 25 69 104 90 104 8 0 32 -20 56 -45 23 -25 48 -45 56 -45 8 0
32 13 54 30 21 16 45 30 52 30 9 0 10 4 1 19 -15 23 13 190 39 233 16 27 16
28 -16 61 -49 50 -46 54 59 95 18 7 31 25 43 58 10 27 36 80 57 117 44 78 44
83 -24 143 -24 22 -54 53 -66 71 l-24 31 22 31 c12 17 26 31 31 31 11 0 98
-92 122 -128 31 -48 44 -47 100 2 28 26 89 65 137 88 47 24 102 53 121 65 54
34 115 53 230 69 57 8 107 18 110 22 3 4 18 21 34 39 l29 32 -32 26 c-37 31
-38 46 -10 91 27 45 60 45 105 0z m184 -125 c-9 -18 -17 -20 -53 -15 -23 4
-49 13 -57 21 -13 13 -8 14 48 8 47 -5 62 -4 62 6 0 7 3 10 6 7 3 -4 1 -16 -6
-27z m-745 -4 c31 -16 55 -48 55 -73 0 -23 -52 -64 -82 -64 -18 0 -92 135 -83
151 8 12 78 3 110 -14z m865 -23 c-6 -6 -6 -15 -2 -19 4 -5 2 -5 -4 -2 -6 4
-9 18 -6 33 3 18 7 22 13 13 4 -7 4 -18 -1 -25z m-543 20 c-3 -3 -12 -4 -19
-1 -8 3 -5 6 6 6 11 1 17 -2 13 -5z m-157 -34 c6 -11 8 -20 6 -20 -3 0 -10 9
-16 20 -6 11 -8 20 -6 20 3 0 10 -9 16 -20z m963 1 c-5 -3 -20 -28 -32 -54
-28 -57 -40 -64 -75 -43 -14 9 -37 23 -51 31 l-25 15 33 30 c29 27 38 30 95
28 35 0 59 -4 55 -7z m-1302 -88 c24 -38 45 -70 46 -73 6 -10 -88 -62 -102
-56 -8 3 -17 17 -21 32 -10 38 -52 84 -73 78 -9 -3 6 15 34 40 27 25 55 46 61
46 7 0 31 -30 55 -67z m1446 36 c41 -22 63 -45 63 -65 0 -14 -65 -95 -86 -107
-10 -6 -31 4 -64 28 l-49 36 26 42 c39 62 57 86 65 87 4 0 24 -9 45 -21z
m-743 -130 c3 -34 6 -138 6 -230 0 -160 -1 -169 -19 -169 -27 0 -36 71 -36
278 0 134 3 164 15 172 25 16 27 13 34 -51z m1154 7 c15 -8 68 -56 117 -107
74 -78 100 -113 147 -205 90 -173 113 -258 157 -559 5 -38 6 -74 2 -80 -5 -5
-11 -48 -15 -93 -13 -159 -81 -392 -151 -518 -38 -68 -122 -164 -143 -164 -6
0 10 28 36 63 65 86 135 239 177 387 88 307 60 656 -74 920 -41 80 -152 250
-180 274 l-21 19 14 -39 c7 -21 38 -89 68 -149 66 -131 131 -320 149 -431 7
-43 12 -151 13 -239 0 -254 -37 -396 -188 -717 -24 -52 -34 -86 -31 -101 5
-17 -2 -34 -21 -58 -57 -70 -129 -139 -146 -139 -10 0 -18 2 -18 5 0 3 28 40
61 83 93 116 203 368 267 612 35 133 36 138 36 335 0 172 -3 212 -21 285 -36
141 -89 274 -182 457 -49 95 -87 173 -84 173 2 0 16 -6 31 -14z m-2401 -169
c-153 -291 -217 -554 -204 -832 9 -190 53 -353 152 -560 26 -55 54 -115 62
-134 8 -19 44 -79 80 -133 36 -55 63 -102 59 -105 -16 -17 -118 111 -134 167
-5 20 -39 90 -76 155 -74 134 -146 336 -173 490 -33 191 -3 464 77 690 35 99
160 346 194 383 40 45 27 1 -37 -121z m291 4 c28 -33 52 -62 52 -65 0 -4 -66
-122 -75 -134 -1 -1 -22 9 -46 22 -24 13 -63 30 -86 37 -24 7 -43 15 -43 18 0
4 11 23 25 43 14 20 25 40 25 43 0 17 65 95 79 95 9 0 40 -27 69 -59z m2014
-22 c32 -41 58 -79 58 -85 0 -6 -19 -20 -42 -32 -24 -12 -61 -33 -84 -46 l-41
-25 -40 76 -41 77 56 58 c31 32 61 57 66 55 6 -2 37 -37 68 -78z m-2453 -74
c-182 -361 -218 -660 -123 -1015 48 -176 112 -313 193 -410 35 -41 69 -79 77
-83 8 -4 14 -12 14 -18 0 -19 -121 72 -151 114 -80 108 -185 408 -209 591 -15
118 -17 123 -46 130 -23 6 -33 0 -75 -45 -48 -52 -48 -52 -96 -46 -36 5 -55
14 -75 37 -16 17 -28 37 -28 46 0 12 -4 13 -20 4 -11 -6 -60 -10 -111 -8 -74
2 -94 6 -103 20 -20 33 7 43 115 43 89 0 102 2 114 20 8 11 27 38 43 60 19 25
34 64 42 105 18 98 100 312 100 262 0 -7 -18 -84 -41 -173 -22 -88 -39 -162
-37 -163 9 -8 78 -14 82 -7 3 4 19 71 36 148 47 217 90 330 146 386 33 33 43
28 19 -9 -29 -45 -102 -256 -135 -392 -17 -70 -35 -137 -41 -148 -8 -16 -7
-29 5 -52 20 -39 27 -43 65 -36 29 6 31 9 31 54 0 122 65 370 130 501 57 113
136 236 146 226 2 -2 -28 -66 -67 -142z m2945 -78 c41 -64 97 -224 126 -362
11 -49 20 -93 20 -97 0 -5 80 -7 80 -2 1 19 -38 191 -56 253 -14 45 -23 85
-21 88 9 9 61 -90 74 -141 8 -28 16 -88 20 -132 5 -77 8 -83 45 -124 l39 -42
88 6 c73 6 90 5 100 -8 11 -13 11 -22 1 -46 -11 -27 -16 -30 -59 -29 -25 0
-68 4 -96 7 -49 7 -51 6 -90 -35 -22 -23 -52 -44 -67 -48 -55 -14 -124 55
-143 141 -5 26 -1 38 24 66 l29 34 -19 94 c-27 132 -73 267 -130 383 -27 54
-49 100 -49 103 0 10 47 -51 84 -109z m-356 -69 c11 -24 24 -55 27 -69 6 -22
3 -27 -19 -33 -14 -3 -51 -22 -82 -41 l-57 -34 -15 27 c-60 110 -58 115 63
169 28 12 53 22 56 23 3 0 15 -19 27 -42z m-2325 3 c36 -16 67 -34 71 -39 6
-10 -10 -62 -30 -96 -13 -21 -9 -22 -126 28 l-36 16 20 52 c21 55 27 68 33 68
2 0 32 -13 68 -29z m1903 -64 c-7 -28 -28 -44 -136 -100 -196 -103 -224 -116
-232 -104 -15 23 -7 32 55 64 34 18 116 66 182 108 120 74 144 80 131 32z
m224 -16 c14 -28 4 -45 -38 -66 -20 -10 -31 -20 -24 -22 7 -3 19 -17 26 -32
17 -33 46 -167 46 -215 0 -26 5 -36 20 -41 11 -4 34 -18 50 -32 29 -24 31 -24
56 -9 14 10 30 28 36 42 17 38 62 33 104 -12 42 -44 43 -69 2 -111 -41 -42
-66 -42 -108 2 -40 41 -58 43 -97 11 -15 -12 -38 -28 -51 -35 -12 -7 -20 -16
-18 -20 7 -11 -7 -89 -33 -188 -20 -74 -21 -85 -7 -116 16 -39 13 -47 -19 -47
-24 0 -45 -20 -68 -65 -8 -16 -38 -59 -66 -94 -28 -35 -51 -71 -51 -81 0 -28
39 -70 65 -70 24 0 64 -40 89 -89 12 -23 12 -29 -5 -50 -18 -22 -21 -22 -51
-10 -44 18 -98 67 -98 89 0 24 -21 40 -62 47 -30 4 -41 -1 -81 -36 -62 -53
-124 -94 -167 -111 -19 -7 -62 -26 -95 -42 -56 -28 -218 -68 -271 -68 -32 0
-31 27 1 42 29 13 30 23 10 86 -8 26 -27 131 -43 235 l-28 187 22 0 c18 0 23
-7 28 -47 4 -27 20 -118 36 -203 16 -85 31 -171 35 -191 4 -28 10 -36 23 -34
61 12 72 17 72 29 0 8 -16 55 -36 106 -19 51 -51 149 -70 218 -33 122 -34 152
-2 140 10 -4 112 -294 154 -436 2 -7 10 -15 19 -18 18 -7 166 63 217 102 20
16 50 37 67 46 56 31 51 57 -26 136 -37 38 -110 115 -162 171 l-94 103 25 24
25 25 41 -53 c23 -29 92 -107 155 -172 110 -115 114 -119 143 -109 18 6 43 29
66 64 20 30 46 66 57 81 30 38 77 156 112 278 16 58 33 112 38 121 6 10 0 25
-19 49 l-27 33 -34 -17 c-27 -14 -59 -17 -154 -17 -115 0 -210 7 -247 17 -11
3 -18 15 -18 30 l0 25 178 -7 c225 -9 284 -2 308 33 16 25 16 32 -6 132 -13
58 -25 121 -28 139 -3 25 -9 32 -27 32 -12 0 -28 -7 -35 -14 -6 -8 -33 -23
-58 -32 -115 -42 -222 -89 -280 -120 -34 -19 -66 -33 -71 -30 -5 3 -11 18 -14
32 -4 20 0 28 15 32 11 3 57 23 101 45 118 57 248 107 279 107 25 0 28 4 28
33 0 46 15 57 77 57 41 0 54 -4 63 -19z m-1065 -97 c73 -34 110 -148 72 -220
-21 -39 -86 -100 -120 -113 -87 -33 -199 9 -230 86 -26 65 0 148 66 211 63 61
134 73 212 36z m2155 -13 c59 -3 80 -10 80 -26 0 -7 16 -27 35 -44 19 -17 35
-34 35 -38 0 -5 14 -26 32 -47 26 -32 31 -46 30 -88 0 -28 -4 -53 -7 -57 -4
-3 -25 15 -48 40 -58 64 -234 286 -216 273 7 -6 34 -12 59 -13z m-3278 -18
c50 -18 76 -32 73 -40 -2 -7 -10 -48 -17 -91 l-12 -79 -33 19 c-25 15 -47 19
-89 16 -55 -3 -55 -3 -50 22 3 14 10 54 17 90 14 81 17 90 26 90 4 0 42 -12
85 -27z m2457 -47 c6 -33 11 -74 11 -91 l0 -32 -75 -7 c-42 -4 -82 -9 -90 -12
-17 -7 -24 18 -28 99 l-2 58 80 27 c44 15 83 25 86 22 3 -3 11 -32 18 -64z
m-3179 -21 c-14 -41 -20 -78 -16 -96 7 -37 0 -37 -41 3 -39 37 -40 48 -12 74
16 14 22 15 28 5 6 -9 10 -4 15 16 9 33 35 77 43 70 3 -3 -5 -36 -17 -72z
m2792 -12 c10 -9 18 -21 18 -27 0 -6 -42 -22 -92 -35 -51 -13 -147 -43 -213
-66 -122 -44 -134 -45 -135 -3 0 12 15 22 50 32 28 8 91 31 142 51 80 32 176
62 202 64 5 1 18 -6 28 -16z m-1578 -44 c193 -67 196 -68 177 -98 -7 -11 -28
-7 -117 27 -60 22 -149 48 -199 58 -49 9 -91 18 -93 20 -2 1 2 12 8 24 11 20
17 22 58 16 26 -3 100 -25 166 -47z m2646 26 c14 -17 -2 -41 -54 -78 l-29 -21
7 29 c8 32 43 85 55 85 5 0 14 -7 21 -15z m-2646 -121 c65 -13 121 -24 123
-24 2 0 1 -5 -2 -11 -7 -11 -305 -6 -325 6 -5 3 -10 20 -10 37 l0 30 48 -7
c26 -3 100 -17 166 -31z m1571 0 c0 -38 -18 -42 -215 -42 -120 1 -142 2 -95 8
33 5 112 22 175 39 63 16 120 29 125 27 6 -1 10 -16 10 -32z m-151 -227 c120
-29 153 -40 167 -58 20 -27 16 -39 -12 -39 -40 0 -415 105 -423 118 -2 4 0 17
5 29 l8 22 53 -19 c29 -10 120 -34 202 -53z m-1226 32 c3 -23 -2 -26 -70 -43
-40 -11 -125 -34 -188 -53 -122 -35 -170 -41 -170 -20 1 36 33 51 212 98 101
26 190 47 198 46 8 -1 16 -14 18 -28z m-1174 -86 c59 -251 120 -416 201 -543
25 -40 44 -74 42 -77 -7 -6 -36 26 -99 110 -46 63 -64 97 -87 175 -51 165
-108 386 -103 400 11 32 30 6 46 -65z m2936 34 l27 10 -14 -73 c-7 -41 -22
-94 -33 -119 -10 -24 -22 -61 -26 -82 -8 -48 -44 -133 -55 -133 -16 0 -131 64
-136 76 -2 6 7 36 21 67 27 62 49 70 95 35 47 -35 45 -17 -3 27 l-49 44 7 73
c11 113 6 108 77 84 48 -15 67 -17 89 -9z m-3045 -104 c18 -59 49 -153 69
-208 l37 -100 -31 30 c-33 33 -63 108 -105 266 -48 179 -23 189 30 12z m572
101 c25 3 52 11 59 17 10 8 14 5 18 -13 3 -12 10 -45 16 -73 6 -27 10 -61 9
-75 -2 -28 24 -102 47 -138 9 -13 13 -30 10 -37 -6 -15 -104 -75 -123 -75 -7
0 -22 17 -32 39 -29 55 -90 262 -97 328 l-7 55 27 -17 c20 -13 38 -16 73 -11z
m-716 -21 c20 -62 47 -193 40 -193 -4 0 -20 27 -36 60 -16 34 -48 80 -72 104
-24 24 -43 46 -43 49 0 3 12 8 28 10 66 10 70 9 83 -30z m3629 16 c0 -30 -37
-172 -66 -252 -38 -108 -99 -227 -145 -288 -41 -53 -98 -103 -107 -94 -2 2 26
43 62 92 77 102 138 238 187 413 17 63 36 123 41 133 12 23 28 22 28 -4z
m-1155 -29 c104 -41 287 -121 303 -133 12 -10 17 -49 6 -59 -5 -5 -148 55
-196 82 -10 6 -66 28 -125 51 -60 22 -109 42 -111 44 -7 7 23 55 32 51 6 -3
47 -19 91 -36z m1265 20 c0 -53 -51 -256 -75 -296 -31 -53 -50 -58 -29 -9 8
20 28 93 45 163 17 70 33 135 35 145 7 23 24 22 24 -3z m160 10 c0 -12 -53
-116 -70 -140 -9 -11 -10 -3 -6 37 10 82 24 113 52 113 13 0 24 -5 24 -10z
m-2440 -35 c0 -14 -37 -33 -132 -70 -35 -13 -102 -41 -149 -63 -127 -59 -131
-59 -127 -26 5 40 37 59 219 128 161 62 189 66 189 31z m50 -86 c0 -10 -19
-32 -42 -51 -24 -18 -49 -38 -55 -44 -7 -7 -16 -14 -21 -16 -4 -1 -18 -18 -31
-37 -13 -18 -60 -62 -105 -97 -83 -66 -96 -68 -96 -12 0 22 9 32 49 55 138 78
181 106 181 115 0 15 -36 1 -153 -58 -91 -47 -108 -52 -114 -39 -9 26 21 49
159 119 70 36 144 76 165 90 34 22 39 23 51 8 6 -9 12 -24 12 -33z m910 7 c0
-3 3 -12 6 -21 6 -13 2 -15 -22 -9 l-29 7 35 -33 c19 -18 55 -49 80 -68 101
-77 141 -121 138 -150 -2 -15 -8 -27 -14 -27 -15 0 -304 276 -304 290 0 6 7
21 16 33 l15 22 40 -20 c21 -11 39 -22 39 -24z m176 -92 c84 -56 124 -95 124
-120 0 -22 -15 -17 -67 22 -153 116 -190 154 -151 154 5 0 48 -25 94 -56z
m-966 -29 c10 -12 3 -28 -41 -93 -81 -118 -154 -215 -177 -236 -20 -18 -52
-16 -52 2 0 23 234 342 251 342 4 0 12 -7 19 -15z m651 -72 c120 -160 164
-232 175 -287 9 -51 -9 -46 -49 12 -87 132 -189 280 -208 304 -22 27 -20 58 3
58 7 0 43 -39 79 -87z m-571 9 c0 -23 -66 -160 -112 -232 -19 -30 -43 -73 -53
-95 -10 -22 -26 -50 -35 -62 -17 -22 -17 -22 -23 19 -5 37 2 55 58 162 137
259 128 245 147 235 10 -5 18 -18 18 -27z m454 -5 c54 -71 176 -337 176 -384
0 -21 -24 -15 -40 10 -30 44 -198 392 -193 400 10 16 33 5 57 -26z m-320 -74
c-7 -60 -14 -82 -14 -45 0 12 -5 22 -11 22 -7 0 -8 12 -4 33 9 39 13 47 26 47
7 0 8 -21 3 -57z m1086 -54 c14 -9 46 -28 73 -43 l47 -27 -53 -66 c-75 -95
-75 -95 -136 -37 -28 26 -51 53 -51 59 0 6 9 28 19 49 11 20 24 50 30 67 11
31 23 31 71 -2z m-1965 -25 c45 -60 44 -87 -2 -146 -39 -48 -69 -60 -80 -32
-3 9 -17 28 -29 42 -13 14 -24 30 -24 35 0 6 -8 19 -17 29 -13 15 -14 21 -4
31 10 9 11 9 6 -4 -3 -9 1 -21 8 -28 12 -9 15 -6 19 19 2 16 1 31 -4 32 -9 3
70 68 83 68 5 0 24 -21 44 -46z m1625 -308 c0 -7 7 -19 16 -27 10 -8 13 -21 9
-36 -3 -13 -1 -23 5 -23 6 0 8 5 5 10 -3 6 1 10 9 10 9 0 16 -5 16 -11 0 -5 5
-7 10 -4 6 3 10 1 10 -4 0 -6 7 -11 15 -11 8 0 15 -5 15 -11 0 -6 -7 -8 -16
-5 -8 3 -13 2 -10 -3 3 -5 0 -11 -7 -14 -26 -10 -56 14 -87 68 -27 46 -30 59
-19 66 20 12 29 11 29 -5z m-94 -99 c43 -59 64 -101 55 -115 -3 -6 -28 -21
-54 -32 l-47 -21 -30 33 c-16 18 -30 37 -30 42 0 5 -7 18 -17 28 -15 17 -15
18 3 19 17 0 16 2 -3 11 -13 6 -23 16 -23 22 0 10 83 54 105 55 6 0 24 -19 41
-42z m-213 -112 c21 -53 35 -100 32 -105 -16 -26 -34 -3 -63 83 -36 102 -38
117 -19 117 7 0 30 -43 50 -95z m-978 66 c0 -4 12 -19 26 -33 21 -21 35 -26
68 -25 22 1 41 6 41 12 0 5 5 4 11 -2 16 -16 -15 -83 -39 -83 -11 0 -25 6 -31
14 -6 7 -36 24 -66 37 -59 25 -69 47 -38 81 15 17 28 16 28 -1z m280 -82 c-9
-35 -21 -72 -26 -81 -12 -22 -39 -24 -39 -3 0 20 70 159 76 152 3 -3 -2 -33
-11 -68z m377 4 c29 -26 22 -62 -18 -99 -40 -39 -54 -36 -98 17 -34 40 -30 67
12 96 36 24 67 20 104 -14z m207 -42 c35 -83 31 -88 -76 -98 -60 -6 -63 -5
-63 16 0 14 6 21 19 21 12 0 23 11 29 29 6 16 20 34 31 41 12 6 21 17 21 25 0
30 18 14 39 -34z m-494 2 c0 -24 8 -32 50 -53 l50 -25 -49 -3 c-72 -5 -80 1
-72 50 10 60 22 78 21 31z"/>
<path d="M5206 5988 c-4 -40 -19 -125 -33 -188 -30 -132 -40 -230 -24 -230 15
0 27 27 40 90 14 65 99 321 110 333 16 16 -1 45 -27 52 -15 3 -34 8 -43 11
-14 4 -18 -8 -23 -68z"/>
<path d="M6230 6257 c12 -13 113 -77 117 -74 2 2 -14 15 -34 29 -40 26 -91 54
-83 45z"/>
<path d="M5017 3453 c18 -2 50 -2 70 0 21 2 7 4 -32 4 -38 0 -55 -2 -38 -4z"/>
<path d="M7810 3466 c0 -18 52 -36 99 -35 l36 2 -41 6 c-23 4 -53 15 -68 24
-21 14 -26 15 -26 3z"/>
<path d="M2040 3482 c0 -13 27 -35 39 -30 5 1 -2 11 -15 21 -13 10 -24 14 -24
9z"/>
<path d="M7520 7885 c13 -14 26 -25 28 -25 3 0 -5 11 -18 25 -13 14 -26 25
-28 25 -3 0 5 -11 18 -25z"/>
<path d="M8350 6775 c0 -5 5 -17 10 -25 5 -8 10 -10 10 -5 0 6 -5 17 -10 25
-5 8 -10 11 -10 5z"/>
<path d="M9461 3891 c-43 -43 -9 -121 54 -121 48 0 79 81 44 115 -26 27 -75
29 -98 6z"/>
<path d="M9051 2354 c0 -11 3 -14 6 -6 3 7 2 16 -1 19 -3 4 -6 -2 -5 -13z"/>
<path d="M2015 1590 c10 -11 20 -18 23 -15 7 6 -18 35 -31 35 -5 0 -2 -9 8
-20z"/>
</g>
</svg>
